<svg width="48" height="40" viewBox="0 0 48 40" fill="none" xmlns="http://www.w3.org/2000/svg">
<path d="M47.7112 5.19716C45.9298 5.98511 44.0408 6.5026 42.1065 6.7325C44.1453 5.51317 45.6712 3.5942 46.3999 1.33316C44.4865 2.47183 42.3889 3.26983 40.2025 3.7015C38.734 2.13018 36.7874 1.08808 34.6654 0.737193C32.5435 0.38631 30.3651 0.746308 28.4688 1.76122C26.5726 2.77613 25.0648 4.38909 24.1798 6.34935C23.2948 8.3096 23.0823 10.5073 23.5752 12.6008C19.6951 12.4064 15.8993 11.3981 12.4342 9.64138C8.96911 7.88471 5.91218 5.41894 3.46188 2.40416C2.59456 3.89388 2.13877 5.58736 2.14121 7.31116C2.14121 10.6945 3.86321 13.6835 6.48121 15.4335C4.9319 15.3847 3.41669 14.9663 2.06188 14.2132V14.3345C2.06235 16.5878 2.84207 18.7716 4.26886 20.5156C5.69564 22.2597 7.68167 23.4566 9.89021 23.9035C8.45198 24.2933 6.94393 24.3507 5.48021 24.0715C6.1029 26.011 7.31656 27.7073 8.95126 28.9228C10.586 30.1382 12.5598 30.812 14.5965 30.8498C12.5723 32.4396 10.2546 33.6148 7.77593 34.3082C5.29724 35.0017 2.70618 35.1998 0.150879 34.8912C4.61151 37.7598 9.8041 39.2828 15.1075 39.2778C33.0579 39.2778 42.8742 24.4075 42.8742 11.5112C42.8742 11.0912 42.8625 10.6665 42.8439 10.2512C44.7546 8.87022 46.4036 7.15954 47.7135 5.1995L47.7112 5.19716Z" fill="#4D4D4D"/>
</svg>
