<svg width="33" height="40" viewBox="0 0 33 40" fill="none" xmlns="http://www.w3.org/2000/svg">
<path d="M8.17894 39.1246C7.37047 38.8552 6.562 38.3165 6.02302 37.2391C5.48404 36.7003 4.94506 35.8923 4.13659 34.8148C3.05863 33.1987 1.98067 31.0438 1.1722 28.8889C0.363728 26.4647 0.0942383 24.0404 0.0942383 21.6162C0.0942383 18.9226 0.633218 16.7677 1.71118 14.8822C2.51965 13.266 3.8671 12.1886 5.21455 11.1111C6.562 10.3031 8.17894 9.76434 9.79588 9.76434C10.3349 9.76434 10.8738 9.76434 11.6823 10.0337C12.2213 10.0337 12.7603 10.3031 13.5687 10.5724C14.3772 10.8418 14.9162 11.1111 15.1857 11.1111C15.7247 11.3805 16.2636 11.3805 16.5331 11.3805C16.8026 11.3805 17.0721 11.3805 17.6111 11.1111C17.8806 11.1111 18.4196 10.8418 18.9585 10.5724C19.4975 10.3031 20.0365 10.0337 20.5755 10.0337C21.1145 10.0337 21.6534 9.76434 22.1924 9.76434C22.7314 9.76434 23.5399 9.49498 24.0788 9.76434C25.1568 9.76434 26.2348 10.0337 27.3127 10.5724C28.9297 11.1111 30.2771 12.4579 31.3551 13.8047C31.0856 13.8047 30.5466 14.0741 30.2771 14.6128C29.4686 15.4209 28.6602 16.229 28.1212 17.0371C27.5822 18.3839 27.0432 19.7307 27.0432 21.3468C27.0432 23.2323 27.5822 24.8485 28.3907 26.1953C28.9297 27.2727 30.0076 28.0808 30.8161 28.6195C31.6246 28.8889 32.1635 29.1583 32.433 29.4276C32.433 29.9663 32.1635 30.7744 31.8941 31.0438C31.3551 32.6599 30.5466 33.7374 29.7381 35.0842C28.9297 36.1616 28.3907 36.9697 28.1212 37.2391C27.3127 38.0471 26.7737 38.8552 25.9653 39.1246C25.4263 39.6633 24.6178 39.9327 23.5399 39.9327C23.0009 39.9327 22.4619 39.9327 21.9229 39.6633C21.6534 39.6633 21.1145 39.3939 20.5755 39.1246C19.767 38.8552 19.4975 38.5859 18.9585 38.5859C18.4196 38.3165 17.6111 38.3165 17.0721 38.3165C16.5331 38.3165 15.7247 38.3165 15.1857 38.5859C14.6467 38.5859 14.1077 38.8552 13.5687 39.1246C12.7603 39.3939 12.4908 39.6633 12.2213 39.6633C11.6823 39.9327 11.1433 39.9327 10.6043 39.9327C9.79588 39.9327 8.98741 39.6633 8.17894 39.1246ZM19.4975 8.41754C18.4196 8.95626 17.3416 9.22562 16.2636 9.22562C15.9941 8.14818 16.2636 7.07074 16.8026 5.72394C17.3416 4.6465 17.6111 3.83842 18.4196 3.03034C19.228 2.22226 20.0365 1.41418 21.1145 0.875463C22.1924 0.336743 23.2704 0.0673828 24.3483 0.0673828C24.3483 1.14482 24.0788 2.22226 23.8094 3.56906C23.5399 4.6465 22.7314 5.45458 22.1924 6.26266C21.3839 7.3401 20.5755 7.87882 19.4975 8.41754Z" fill="#555555"/>
</svg>
