<svg width="47" height="46" viewBox="0 0 47 46" fill="none" xmlns="http://www.w3.org/2000/svg">
<path d="M23.5 21.4844C20.4792 21.4844 17.9922 20.5078 16.0391 18.5547C14.0859 16.6016 13.1094 14.1146 13.1094 11.0938C13.1094 8.07292 14.0859 5.59896 16.0391 3.67187C17.9922 1.74479 20.4792 0.78125 23.5 0.78125C26.5208 0.78125 29.0078 1.74479 30.9609 3.67187C32.9141 5.59896 33.8906 8.07292 33.8906 11.0938C33.8906 14.1146 32.9141 16.6016 30.9609 18.5547C29.0078 20.5078 26.5208 21.4844 23.5 21.4844ZM0.0625 45.3125V39.375C0.0625 37.7083 0.505209 36.25 1.39063 35C2.27604 33.75 3.42188 32.7865 4.82813 32.1094C8.16146 30.651 11.3516 29.5573 14.3984 28.8281C17.4453 28.099 20.4792 27.7344 23.5 27.7344C26.5208 27.7344 29.5547 28.112 32.6016 28.8672C35.6484 29.6224 38.8125 30.7292 42.0938 32.1875C43.5521 32.8646 44.724 33.8151 45.6094 35.0391C46.4948 36.263 46.9375 37.7083 46.9375 39.375V45.3125H0.0625ZM3.57812 41.7969H43.4219V39.375C43.4219 38.5938 43.1615 37.8255 42.6406 37.0703C42.1198 36.3151 41.4427 35.7292 40.6094 35.3125C37.5365 33.8021 34.6328 32.7474 31.8984 32.1484C29.1641 31.5495 26.3646 31.25 23.5 31.25C20.6354 31.25 17.8099 31.5495 15.0234 32.1484C12.237 32.7474 9.33333 33.8021 6.3125 35.3125C5.53125 35.7292 4.88021 36.3151 4.35938 37.0703C3.83854 37.8255 3.57812 38.5938 3.57812 39.375V41.7969ZM23.5 17.9688C25.4271 17.9688 27.0417 17.3177 28.3438 16.0156C29.6458 14.7135 30.2969 13.0729 30.2969 11.0938C30.2969 9.16667 29.6458 7.55208 28.3438 6.25C27.0417 4.94792 25.4271 4.29688 23.5 4.29688C21.5729 4.29688 19.9583 4.94792 18.6562 6.25C17.3542 7.55208 16.7031 9.16667 16.7031 11.0938C16.7031 13.0729 17.3542 14.7135 18.6562 16.0156C19.9583 17.3177 21.5729 17.9688 23.5 17.9688Z" fill="#4D4D4D"/>
</svg>
