<svg width="48" height="48" viewBox="0 0 48 48" fill="none" xmlns="http://www.w3.org/2000/svg">
<path d="M24.0001 47.2663C11.1131 47.2663 0.666748 36.8199 0.666748 23.9329C0.666748 11.0459 11.1131 0.599609 24.0001 0.599609C36.8871 0.599609 47.3334 11.0459 47.3334 23.9329C47.3334 36.8199 36.8871 47.2663 24.0001 47.2663ZM18.6567 41.8226C16.3547 36.9397 15.0211 31.6568 14.7297 26.2663H5.47808C5.93212 29.857 7.41923 33.2387 9.75874 36.0003C12.0983 38.7619 15.1894 40.7846 18.6567 41.8226ZM19.4034 26.2663C19.7557 31.9573 21.3821 37.3029 24.0001 42.0209C26.6888 37.1782 28.2595 31.7951 28.5968 26.2663H19.4034ZM42.5221 26.2663H33.2704C32.979 31.6568 31.6454 36.9397 29.3434 41.8226C32.8107 40.7846 35.9019 38.7619 38.2414 36.0003C40.5809 33.2387 42.0681 29.857 42.5221 26.2663ZM5.47808 21.5996H14.7297C15.0211 16.2091 16.3547 10.9262 18.6567 6.04328C15.1894 7.08133 12.0983 9.10403 9.75874 11.8656C7.41923 14.6272 5.93212 18.0088 5.47808 21.5996ZM19.4058 21.5996H28.5944C28.2578 16.071 26.688 10.6879 24.0001 5.84494C21.3113 10.6877 19.7407 16.0708 19.4034 21.5996H19.4058ZM29.3434 6.04328C31.6454 10.9262 32.979 16.2091 33.2704 21.5996H42.5221C42.0681 18.0088 40.5809 14.6272 38.2414 11.8656C35.9019 9.10403 32.8107 7.08133 29.3434 6.04328Z" fill="#4D4D4D"/>
</svg>
