<svg width="42" height="42" viewBox="0 0 42 42" fill="none" xmlns="http://www.w3.org/2000/svg">
<path d="M35.7817 35.791H29.5633V26.0447C29.5633 23.7207 29.5167 20.7293 26.32 20.7293C23.079 20.7293 22.5843 23.2587 22.5843 25.8743V35.791H16.3637V15.75H22.337V18.48H22.4187C23.254 16.9073 25.284 15.2437 28.3173 15.2437C34.6173 15.2437 35.784 19.3923 35.784 24.7893V35.791H35.7817ZM9.34033 13.0083C8.86563 13.0089 8.39547 12.9159 7.95681 12.7344C7.51816 12.553 7.11962 12.2867 6.78407 11.9509C6.44851 11.6152 6.18252 11.2165 6.00136 10.7777C5.82019 10.3389 5.72741 9.8687 5.72833 9.394C5.72879 8.67961 5.94109 7.98141 6.33836 7.38767C6.73564 6.79394 7.30005 6.33135 7.96024 6.05839C8.62042 5.78543 9.34672 5.71437 10.0473 5.85419C10.7479 5.99402 11.3912 6.33844 11.8961 6.84391C12.4009 7.34939 12.7445 7.99321 12.8834 8.69396C13.0223 9.3947 12.9503 10.1209 12.6765 10.7807C12.4027 11.4406 11.9394 12.0044 11.3451 12.4009C10.7509 12.7974 10.0547 13.0088 9.34033 13.0083ZM12.4577 35.791H6.22067V15.75H12.46V35.791H12.4577ZM38.8967 0H3.101C1.38367 0 0 1.35333 0 3.02633V38.9737C0 40.6467 1.386 42 3.09867 42H38.8873C40.6 42 42 40.6467 42 38.9737V3.02633C42 1.35333 40.6 0 38.8873 0H38.8967Z" fill="#4D4D4D"/>
</svg>
