<svg width="34" height="24" viewBox="0 0 34 24" fill="none" xmlns="http://www.w3.org/2000/svg">
<path fill-rule="evenodd" clip-rule="evenodd" d="M32.0371 21.1923C33.0621 19.4357 33.5 16.6033 33.5 11.9958C33.5 7.40667 33.0662 4.59073 32.0303 2.78704C30.9922 0.914045 29.761 0.319547 27.3174 0.176851C25.6493 0.0637834 21.5034 0 17.004 0C12.4949 0 8.34717 0.0637596 6.66651 0.177737C4.23667 0.319888 3.00516 0.915698 1.9579 2.7939C0.937075 4.59136 0.5 7.42106 0.5 12.0126C0.5 16.5781 0.939192 19.422 1.96687 21.2136C3.00052 23.0676 4.2124 23.6562 6.66291 23.8283C8.42414 23.9314 12.8066 24 17.004 24C21.192 24 25.5723 23.9314 27.3174 23.8294C29.7905 23.6562 31.0022 23.0666 32.0371 21.1923ZM27.1286 3.17087C28.6571 3.26019 28.9405 3.39758 29.425 4.27445C30.1303 5.49599 30.5 7.88657 30.5 12.0126C30.5 16.1074 30.1284 18.5111 29.4283 19.7115C28.9421 20.5911 28.6606 20.7281 27.1251 20.8357C25.4734 20.932 21.1355 21 17.004 21C12.8632 21 8.52311 20.932 6.85555 20.8346C5.33901 20.7279 5.05348 20.5893 4.5781 19.7367C3.87329 18.5078 3.5 16.0906 3.5 11.9958C3.5 7.90348 3.87131 5.49958 4.57234 4.26513C5.05512 3.39941 5.34266 3.26029 6.85564 3.17174C8.45762 3.06316 12.5664 3 17.004 3C21.4321 3 25.5389 3.06318 27.1286 3.17087ZM14 7.5L21.5 12L14 16.5V7.5Z" fill="#FFF4E7"/>
</svg>
