<svg width="40" height="40" viewBox="0 0 40 40" fill="none" xmlns="http://www.w3.org/2000/svg">
<path d="M40 20C40 8.95434 31.0457 4.19617e-05 20 4.19617e-05C8.9543 4.19617e-05 0 8.95434 0 20C0 29.9826 7.31371 38.2567 16.875 39.7571V25.7813H11.7969V20H16.875V15.5938C16.875 10.5813 19.8609 7.81254 24.4293 7.81254C26.6175 7.81254 28.9062 8.20317 28.9062 8.20317V13.125H26.3843C23.8998 13.125 23.125 14.6667 23.125 16.2484V20H28.6719L27.7852 25.7813H23.125V39.7571C32.6863 38.2567 40 29.9826 40 20Z" fill="#1877F2"/>
</svg>
