<svg width="30" height="30" viewBox="0 0 30 30" fill="none" xmlns="http://www.w3.org/2000/svg">
<path fill-rule="evenodd" clip-rule="evenodd" d="M21 0H9C4.02944 0 0 4.02944 0 9V21C0 25.9706 4.02944 30 9 30H21C25.9706 30 30 25.9706 30 21V9C30 4.02944 25.9706 0 21 0ZM3 9C3 5.68629 5.68629 3 9 3H21C24.3137 3 27 5.68629 27 9V21C27 24.3137 24.3137 27 21 27H9C5.68629 27 3 24.3137 3 21V9ZM15 22.5C10.8579 22.5 7.5 19.1421 7.5 15C7.5 10.8579 10.8579 7.5 15 7.5C19.1421 7.5 22.5 10.8579 22.5 15C22.5 19.1421 19.1421 22.5 15 22.5ZM15 19.5C17.4853 19.5 19.5 17.4853 19.5 15C19.5 12.5147 17.4853 10.5 15 10.5C12.5147 10.5 10.5 12.5147 10.5 15C10.5 17.4853 12.5147 19.5 15 19.5ZM24 7.5C24 8.32843 23.3284 9 22.5 9C21.6716 9 21 8.32843 21 7.5C21 6.67157 21.6716 6 22.5 6C23.3284 6 24 6.67157 24 7.5Z" fill="#FFF4E7"/>
</svg>
