<svg width="30" height="30" viewBox="0 0 30 30" fill="none" xmlns="http://www.w3.org/2000/svg">
<path fill-rule="evenodd" clip-rule="evenodd" d="M3 0H27C28.6569 0 30 1.34315 30 3V27C30 28.6569 28.6569 30 27 30H3C1.34315 30 0 28.6569 0 27V3C0 1.34315 1.34315 0 3 0ZM3 3V27H27V3H3ZM16.5 10.5C15.7234 10.5 14.9029 10.7374 14.1782 11.1782L13.5 10.5H12V21H15V15C15 14.1364 15.8909 13.5 16.5 13.5H18C18.6091 13.5 19.5 14.1364 19.5 15V21H22.5V15C22.5 12.2208 20.0909 10.5 18 10.5H16.5ZM9 9C9.82843 9 10.5 8.32843 10.5 7.5C10.5 6.67157 9.82843 6 9 6C8.17157 6 7.5 6.67157 7.5 7.5C7.5 8.32843 8.17157 9 9 9ZM7.5 10.5V21H10.5V10.5H7.5Z" fill="#FFF4E7"/>
</svg>
