<svg width="31" height="29" viewBox="0 0 31 29" fill="none" xmlns="http://www.w3.org/2000/svg">
<path fill-rule="evenodd" clip-rule="evenodd" d="M28.6793 3.76241L30.8014 4.01024L29.8475 5.922C29.3823 6.85429 28.9167 7.78658 28.4506 8.71887C28.3953 8.91633 28.2982 9.08943 28.1545 9.31481C28.0945 9.40898 27.8894 9.70853 27.8798 9.72292C27.8256 9.80412 27.7856 9.86816 27.7568 9.91948V13.5023C27.7568 22.6703 18.8843 28.4961 10.5053 28.4961C8.79077 28.4961 7.4881 28.414 5.99647 28.0885C3.54172 27.5528 1.71491 26.488 0.87896 24.627L0.018316 22.711L2.10988 22.5187C4.00201 22.3446 5.64253 21.9842 6.90238 21.5015C3.44365 20.9453 1.5054 19.4262 1.5054 16.5733V15.0733H3.0054C3.33497 15.0733 3.63214 15.0466 3.89782 14.9975C1.302 13.4455 0.00183263 10.9557 0.00183263 7.50228C0.00154899 7.35509 0.00154899 7.35509 0.000663826 7.19771C-0.00908785 5.45704 0.0844083 4.52695 0.560922 3.33989C0.866315 2.57911 1.30775 1.87483 1.90185 1.2295L3.03376 0L4.13426 1.2577C7.76091 5.40241 11.3459 7.91693 15.0063 8.22108C15.0219 4.39657 17.9123 1.50228 21.7565 1.50228C23.5486 1.50228 25.1742 2.18252 26.4517 3.40909C27.1509 3.55276 27.8935 3.67064 28.6793 3.76241ZM25.363 6.24302L24.9031 6.1389L24.5855 5.79041C23.8177 4.94782 22.8539 4.50228 21.7565 4.50228C19.562 4.50228 18.0062 6.06586 18.0062 8.25228C18.0062 8.6096 17.997 8.83413 17.9524 9.12922C17.7748 10.3067 17.1143 11.2523 15.7562 11.2523C11.2591 11.2523 7.20203 8.84313 3.24584 4.72842C3.04189 5.34841 2.99392 5.98571 3.00062 7.1809C3.00152 7.34075 3.00152 7.34075 3.00183 7.50228C3.00183 10.5743 4.2464 12.2547 7.1932 13.1913L8.23883 13.5236V14.6208C8.23883 15.9513 6.97833 17.2037 5.13403 17.7647C5.97947 18.4061 7.7085 18.7523 10.5058 18.7523H12.0058V20.2523C12.0058 22.4014 9.53643 24.0841 5.80612 24.9628C7.02267 25.3355 8.64248 25.4961 10.5053 25.4961C17.4269 25.4961 24.7568 20.6832 24.7568 13.5023V9.75228C24.7568 9.31161 24.8845 8.9291 25.0967 8.53139C25.1797 8.37589 25.2711 8.22764 25.3838 8.05856C25.405 8.02673 25.4838 7.91139 25.5463 7.81919L25.6652 7.58143C25.8578 7.19617 26.0504 6.81091 26.2429 6.42565C25.9437 6.36899 25.6504 6.30812 25.363 6.24302Z" fill="#FFF4E7"/>
</svg>
